<svg width="18" height="17" viewBox="0 0 18 17" fill="none" xmlns="http://www.w3.org/2000/svg">
<path d="M1.45166 1L16.4516 16M7.15522 6.76137C6.71969 7.21133 6.45166 7.82433 6.45166 8.5C6.45166 9.88075 7.57097 11 8.95164 11C9.63706 11 10.2581 10.7242 10.7096 10.2775M4.36833 4.03929C2.78558 5.08362 1.58002 6.65328 1 8.5C2.06188 11.8809 5.22047 14.3333 8.95181 14.3333C10.6092 14.3333 12.1536 13.8495 13.4515 13.0153M8.11831 2.70782C8.39247 2.68061 8.67056 2.66667 8.95181 2.66667C12.6832 2.66667 15.8418 5.11909 16.9036 8.5C16.6697 9.245 16.3339 9.94483 15.9126 10.5833" stroke="#263238" stroke-linecap="round" stroke-linejoin="round"/>
</svg>
