<svg width="212" height="213" viewBox="0 0 212 213" fill="none" xmlns="http://www.w3.org/2000/svg">
<path fill-rule="evenodd" clip-rule="evenodd" d="M104.963 66.0468C106.407 69.1427 105.788 75.541 106.201 79.8753C106.819 84.2095 107.851 87.3055 109.501 91.227C114.245 101.96 119.609 109.39 125.591 117.439C130.748 124.25 138.792 133.744 137.555 146.334C136.73 154.177 129.304 165.942 126.622 176.674C123.115 191.122 123.528 199.172 127.241 213H173.653C172.415 180.596 161.689 172.753 159.626 163.259C154.263 137.253 189.124 150.462 190.362 213H193.868C194.487 202.267 197.581 195.044 196.137 182.866C187.886 112.692 135.286 125.489 113.627 78.6369C110.945 72.6514 108.676 59.2358 105.994 55.7271L104.963 66.0468Z" fill="#BE4E92"/>
<path fill-rule="evenodd" clip-rule="evenodd" d="M19.3583 213H22.2462C22.6587 197.933 24.7215 186.169 29.0533 173.372C31.5286 166.768 41.0174 145.922 50.5061 152.526C58.5509 159.131 47.6183 173.579 44.9367 180.802C41.4299 190.503 38.9546 202.267 38.7483 213H84.9544C97.5373 180.596 74.0217 159.131 74.8468 141.587C75.4657 126.314 94.2369 113.518 105.788 84.0032C106.613 84.8287 108.47 85.4479 109.501 91.227C107.851 87.3055 106.82 84.2095 106.201 79.8753C105.788 75.541 107.026 59.0294 105.995 55.7271C104.138 58.6166 102.075 72.8578 100.631 76.3665C91.7615 97.006 81.2414 103.198 63.9141 114.55C57.7258 118.677 51.7438 122.599 46.5869 126.521C21.0085 146.334 11.3135 172.134 19.3583 213Z" fill="#5DA6DB"/>
<path fill-rule="evenodd" clip-rule="evenodd" d="M93.2049 76.3666C91.1421 69.7619 86.604 65.2213 90.7295 55.7271C97.7429 40.0411 118.577 44.3754 122.496 57.3783C125.384 67.2852 120.64 71.4131 117.339 77.3986C141.267 75.3346 146.424 22.7039 108.676 19.4016C92.3797 18.1632 81.0345 28.8958 77.1152 40.6603C71.9583 55.7271 81.8596 75.1282 93.2049 76.3666Z" fill="#FFB156"/>
<path fill-rule="evenodd" clip-rule="evenodd" d="M204.595 141.381C215.115 139.73 216.559 120.742 194.694 116.407C173.241 112.073 182.936 101.134 170.972 91.4335C169.115 89.9888 164.371 87.7184 163.546 86.8928C161.07 84.0033 162.927 81.9394 158.801 79.4626C151.375 74.9219 144.156 78.4306 142.299 85.8609C134.048 122.186 156.532 100.309 158.389 99.4829C167.259 105.262 161.483 117.233 180.254 128.378C188.712 126.314 173.241 130.855 182.729 127.346L184.586 126.727C198.2 122.599 210.577 128.378 204.595 141.381Z" fill="#BE4E92"/>
<path fill-rule="evenodd" clip-rule="evenodd" d="M32.7661 128.377C38.9544 122.598 41.636 123.217 45.1427 115.168C48.0306 108.77 48.0306 105.055 52.9813 99.0693C58.9633 101.133 61.8512 110.215 68.6583 105.261C74.2278 100.927 73.1964 77.6042 60.4072 77.3978C50.9185 77.3978 52.1561 82.3513 48.8557 86.2728C45.9678 89.5751 41.0172 89.7815 37.3042 95.5606C29.2594 108.151 35.8603 112.279 16.8828 116.406C6.36264 118.677 -6.22026 128.997 3.47476 139.523C7.39402 134.776 4.71242 122.805 24.1025 125.901L32.7661 128.377Z" fill="#5DA6DB"/>
<path fill-rule="evenodd" clip-rule="evenodd" d="M79.1787 25.3871C78.9725 21.672 78.1473 22.4976 75.672 19.1953C72.7841 14.861 73.403 14.861 67.8335 15.2738C69.0712 20.6401 73.6093 25.7999 79.1787 25.3871Z" fill="#FFC889"/>
<path fill-rule="evenodd" clip-rule="evenodd" d="M131.573 24.1484C133.636 23.3228 136.73 22.2909 138.999 21.2589C143.124 19.1949 142.712 18.9885 143.537 14.2415C136.111 16.5118 132.398 16.9246 131.573 24.1484Z" fill="#FFC889"/>
<path fill-rule="evenodd" clip-rule="evenodd" d="M138.999 38.3893C141.062 37.7701 144.156 36.5317 146.425 35.4998C150.551 33.6422 150.138 33.2294 151.169 28.6887C143.537 30.7527 139.824 31.1655 138.999 38.3893Z" fill="#FFC889"/>
<path fill-rule="evenodd" clip-rule="evenodd" d="M71.959 39.8346C70.7213 36.9451 71.5465 38.1834 69.4837 36.3259C69.2774 36.1195 66.8021 34.4683 66.5958 34.4683C62.6765 32.4044 62.8828 32.4044 58.3447 33.6427C60.4075 39.009 66.8021 40.041 71.959 39.8346Z" fill="#FFC889"/>
<path fill-rule="evenodd" clip-rule="evenodd" d="M90.9364 15.4799C90.7301 8.04966 91.3489 4.54095 84.748 2.06421C85.1606 9.49442 83.9229 13.2095 90.9364 15.4799Z" fill="#FFC889"/>
<path fill-rule="evenodd" clip-rule="evenodd" d="M119.403 14.2409C122.084 13.0026 122.291 12.7962 124.766 10.5258C128.685 6.81071 127.654 8.04908 127.86 2.27002C122.497 4.54036 119.196 7.0171 119.403 14.2409Z" fill="#FFC889"/>
<path fill-rule="evenodd" clip-rule="evenodd" d="M105.376 11.9709C107.439 10.7325 107.439 10.5261 108.882 8.2558C110.945 4.33429 110.533 5.77906 108.057 0C103.726 2.27034 101.663 4.74708 105.376 11.9709Z" fill="#FFC889"/>
</svg>
