<svg width="278" height="60" viewBox="0 0 278 60" fill="none" xmlns="http://www.w3.org/2000/svg">
<path d="M16.2 46.558C13.05 46.558 10.2682 46.0285 7.85454 44.9695C5.4409 43.8697 3.53863 42.3218 2.14773 40.3259C0.756818 38.2892 0.0409091 35.8248 0 32.9328H8.28408C8.3659 34.9287 9.08181 36.6191 10.4318 38.0041C11.8227 39.3483 13.725 40.0204 16.1386 40.0204C18.225 40.0204 19.8818 39.5316 21.1091 38.554C22.3363 37.5356 22.95 36.1914 22.95 34.5214C22.95 32.7699 22.3977 31.4053 21.2932 30.4277C20.2295 29.4501 18.7977 28.6558 16.9977 28.0448C15.1977 27.4338 13.275 26.7821 11.2295 26.0896C7.9159 24.9491 5.37954 23.4827 3.62045 21.6904C1.90227 19.8982 1.04318 17.5153 1.04318 14.5418C1.00227 12.0163 1.59545 9.85743 2.82272 8.06517C4.0909 6.23218 5.80908 4.82688 7.97726 3.84929C10.1454 2.83096 12.6409 2.32179 15.4636 2.32179C18.3273 2.32179 20.8432 2.83096 23.0113 3.84929C25.2204 4.86761 26.9386 6.29328 28.1659 8.12627C29.4341 9.95926 30.1091 12.1385 30.1909 14.6639H21.7841C21.7432 13.1568 21.15 11.833 20.0045 10.6925C18.9 9.5112 17.3454 8.92057 15.3409 8.92057C13.6227 8.87984 12.1704 9.30753 10.9841 10.2037C9.83863 11.0591 9.2659 12.3218 9.2659 13.9919C9.2659 15.4175 9.7159 16.558 10.6159 17.4134C11.5159 18.2281 12.7432 18.9206 14.2977 19.4908C15.8523 20.0611 17.6318 20.6721 19.6363 21.3238C21.7636 22.057 23.7068 22.9124 25.4659 23.89C27.225 24.8676 28.6363 26.1711 29.7 27.8004C30.7636 29.389 31.2954 31.446 31.2954 33.9715C31.2954 36.2118 30.7227 38.2892 29.5772 40.2037C28.4318 42.1181 26.7341 43.666 24.4841 44.8473C22.2341 45.9878 19.4727 46.558 16.2 46.558Z" fill="black"/>
<path d="M52.753 46.558C49.6848 46.558 46.9644 45.9063 44.5917 44.6029C42.2189 43.2994 40.3576 41.4664 39.0076 39.1039C37.6576 36.7413 36.9826 34.0122 36.9826 30.9165C36.9826 27.78 37.6371 24.9898 38.9462 22.5458C40.2962 20.1018 42.1371 18.2077 44.4689 16.8635C46.8417 15.4786 49.6235 14.7861 52.8144 14.7861C55.8007 14.7861 58.4394 15.4379 60.7303 16.7413C63.0212 18.0448 64.8007 19.8371 66.0689 22.1181C67.378 24.3585 68.0325 26.8635 68.0325 29.6334C68.0325 30.0815 68.0121 30.5499 67.9712 31.0387C67.9712 31.5275 67.9507 32.0367 67.9098 32.5662H44.7758C44.9394 34.9287 45.7576 36.7821 47.2303 38.1263C48.7439 39.4705 50.5644 40.1426 52.6917 40.1426C54.2871 40.1426 55.6166 39.7963 56.6803 39.1039C57.7848 38.3707 58.603 37.4338 59.1348 36.2933H67.1121C66.5394 38.2077 65.578 39.9593 64.228 41.5479C62.9189 43.0957 61.2826 44.3177 59.3189 45.2139C57.3962 46.11 55.2076 46.558 52.753 46.558ZM52.8144 21.1405C50.8917 21.1405 49.1939 21.6904 47.7212 22.7902C46.2485 23.8493 45.3076 25.4786 44.8985 27.6782H60.0553C59.9326 25.6823 59.1962 24.0937 57.8462 22.9124C56.4962 21.7312 54.8189 21.1405 52.8144 21.1405Z" fill="black"/>
<path d="M74.6387 45.8248V1.83299H82.4933V20.1629C83.516 18.4929 84.8864 17.1894 86.6046 16.2525C88.3637 15.2749 90.3682 14.7861 92.6182 14.7861C96.3819 14.7861 99.2864 15.9674 101.332 18.3299C103.418 20.6925 104.461 24.1548 104.461 28.7169V45.8248H96.6682V29.4501C96.6682 26.8432 96.1364 24.8472 95.0728 23.4623C94.0501 22.0774 92.4137 21.3849 90.1637 21.3849C87.9546 21.3849 86.1137 22.1589 84.641 23.7067C83.2092 25.2546 82.4933 27.4134 82.4933 30.1833V45.8248H74.6387Z" fill="black"/>
<path d="M114.758 59.2668L121.815 43.8086H119.974L108.131 15.5193H116.66L125.19 36.8432L134.088 15.5193H142.433L123.103 59.2668H114.758Z" fill="black"/>
<path d="M159.536 46.558C156.59 46.558 153.931 45.8859 151.558 44.5418C149.227 43.1976 147.365 41.3442 145.974 38.9817C144.624 36.5784 143.949 33.8086 143.949 30.6721C143.949 27.5356 144.645 24.7861 146.036 22.4236C147.427 20.0204 149.288 18.1466 151.62 16.8024C153.993 15.4582 156.652 14.7861 159.597 14.7861C162.502 14.7861 165.12 15.4582 167.452 16.8024C169.824 18.1466 171.686 20.0204 173.036 22.4236C174.427 24.7861 175.122 27.5356 175.122 30.6721C175.122 33.8086 174.427 36.5784 173.036 38.9817C171.686 41.3442 169.824 43.1976 167.452 44.5418C165.079 45.8859 162.44 46.558 159.536 46.558ZM159.536 39.776C161.581 39.776 163.361 39.0224 164.874 37.5153C166.388 35.9674 167.145 33.6864 167.145 30.6721C167.145 27.6578 166.388 25.3971 164.874 23.89C163.361 22.3422 161.602 21.5682 159.597 21.5682C157.511 21.5682 155.711 22.3422 154.197 23.89C152.724 25.3971 151.988 27.6578 151.988 30.6721C151.988 33.6864 152.724 35.9674 154.197 37.5153C155.711 39.0224 157.49 39.776 159.536 39.776Z" fill="black"/>
<path d="M193.114 36.7821C191.641 36.7821 190.27 36.6191 189.002 36.2933L186.732 38.554C187.427 38.9206 188.368 39.2261 189.554 39.4705C190.741 39.7149 192.664 39.9593 195.323 40.2037C199.373 40.5703 202.318 41.5275 204.159 43.0754C206 44.6232 206.92 46.7617 206.92 49.4908C206.92 51.2831 206.429 52.9735 205.448 54.5621C204.466 56.1914 202.952 57.4949 200.907 58.4725C198.861 59.4908 196.243 60 193.052 60C188.716 60 185.218 59.1853 182.559 57.556C179.9 55.9674 178.57 53.5642 178.57 50.3462C178.57 47.6171 179.9 45.2546 182.559 43.2587C181.741 42.8921 181.025 42.5051 180.411 42.0978C179.839 41.6904 179.327 41.2627 178.877 40.8147V39.4094L184.216 33.7882C181.843 31.7108 180.657 29.0428 180.657 25.7841C180.657 23.7475 181.148 21.8941 182.129 20.224C183.152 18.554 184.584 17.2301 186.425 16.2525C188.266 15.2749 190.495 14.7861 193.114 14.7861C194.832 14.7861 196.427 15.0306 197.9 15.5193H209.436V20.2851L204.22 20.6517C205.039 22.1996 205.448 23.9104 205.448 25.7841C205.448 27.8208 204.957 29.6741 203.975 31.3442C202.993 33.0143 201.561 34.3381 199.679 35.3157C197.839 36.2933 195.65 36.7821 193.114 36.7821ZM193.114 30.7943C194.709 30.7943 196.018 30.3666 197.041 29.5112C198.104 28.6558 198.636 27.4338 198.636 25.8452C198.636 24.2566 198.104 23.0346 197.041 22.1792C196.018 21.3238 194.709 20.8961 193.114 20.8961C191.436 20.8961 190.086 21.3238 189.064 22.1792C188.041 23.0346 187.529 24.2566 187.529 25.8452C187.529 27.4338 188.041 28.6558 189.064 29.5112C190.086 30.3666 191.436 30.7943 193.114 30.7943ZM185.75 49.5519C185.75 51.0591 186.445 52.1792 187.836 52.9124C189.268 53.6864 191.007 54.0733 193.052 54.0733C195.016 54.0733 196.611 53.666 197.839 52.8513C199.066 52.0774 199.679 51.0183 199.679 49.6741C199.679 48.5743 199.27 47.6578 198.452 46.9246C197.675 46.1914 196.1 45.7434 193.727 45.5804C192.05 45.4583 190.495 45.275 189.064 45.0306C187.877 45.6823 187.018 46.3951 186.486 47.169C185.995 47.943 185.75 48.7373 185.75 49.5519Z" fill="black"/>
<path d="M219.398 10.8147C217.966 10.8147 216.78 10.387 215.839 9.53157C214.939 8.67617 214.489 7.59674 214.489 6.29328C214.489 4.98982 214.939 3.93075 215.839 3.11609C216.78 2.26069 217.966 1.83299 219.398 1.83299C220.83 1.83299 221.995 2.26069 222.895 3.11609C223.836 3.93075 224.307 4.98982 224.307 6.29328C224.307 7.59674 223.836 8.67617 222.895 9.53157C221.995 10.387 220.83 10.8147 219.398 10.8147ZM215.47 45.8248V15.5193H223.325V45.8248H215.47Z" fill="black"/>
<path d="M231.523 45.8248V15.5193H238.457L239.071 20.6517C240.012 18.8595 241.362 17.4338 243.121 16.3747C244.921 15.3157 247.028 14.7861 249.441 14.7861C253.205 14.7861 256.13 15.9674 258.216 18.3299C260.303 20.6925 261.346 24.1548 261.346 28.7169V45.8248H253.491V29.4501C253.491 26.8432 252.96 24.8472 251.896 23.4623C250.832 22.0774 249.176 21.3849 246.926 21.3849C244.716 21.3849 242.896 22.1589 241.464 23.7067C240.073 25.2546 239.378 27.4134 239.378 30.1833V45.8248H231.523Z" fill="black"/>
<path d="M273.091 10.8147C271.659 10.8147 270.473 10.387 269.532 9.53157C268.632 8.67617 268.182 7.59674 268.182 6.29328C268.182 4.98982 268.632 3.93075 269.532 3.11609C270.473 2.26069 271.659 1.83299 273.091 1.83299C274.523 1.83299 275.689 2.26069 276.589 3.11609C277.53 3.93075 278 4.98982 278 6.29328C278 7.59674 277.53 8.67617 276.589 9.53157C275.689 10.387 274.523 10.8147 273.091 10.8147ZM269.164 45.8248V15.5193H277.018V45.8248H269.164Z" fill="black"/>
<path d="M225.283 6.54641C225.283 10.1619 222.34 13.0928 218.709 13.0928C215.077 13.0928 212.134 10.1619 212.134 6.54641C212.134 2.93093 215.077 0 218.709 0C222.34 0 225.283 2.93093 225.283 6.54641Z" fill="#FFBE21"/>
</svg>
