<svg width="390" height="844" viewBox="0 0 390 844" fill="none" xmlns="http://www.w3.org/2000/svg">
<g clip-path="url(#clip0_202_3)">
<path d="M83.5 275H-139.5C-172.361 275 -199 301.639 -199 334.5C-199 367.361 -172.361 394 -139.5 394H83.5C116.361 394 143 367.361 143 334.5C143 301.639 116.361 275 83.5 275Z" fill="#D9D9D9"/>
<path d="M6.5 227H-112.5C-138.181 227 -159 247.819 -159 273.5C-159 299.181 -138.181 320 -112.5 320H6.5C32.1812 320 53 299.181 53 273.5C53 247.819 32.1812 227 6.5 227Z" fill="#D9D9D9"/>
<path d="M473.5 298H394.5C358.325 298 329 327.325 329 363.5C329 399.675 358.325 429 394.5 429H473.5C509.675 429 539 399.675 539 363.5C539 327.325 509.675 298 473.5 298Z" fill="#D9D9D9"/>
<path d="M511 358H317C276.131 358 243 391.131 243 432C243 472.869 276.131 506 317 506H511C551.869 506 585 472.869 585 432C585 391.131 551.869 358 511 358Z" fill="#D9D9D9"/>
</g>
<defs>
<clipPath id="clip0_202_3">
<rect width="390" height="844" fill="white"/>
</clipPath>
</defs>
</svg>
