<svg width="143" height="167" viewBox="0 0 143 167" fill="none" xmlns="http://www.w3.org/2000/svg">
<g clip-path="url(#clip0_207_14)">
<path d="M83.5 48H-139.5C-172.361 48 -199 74.6391 -199 107.5C-199 140.361 -172.361 167 -139.5 167H83.5C116.361 167 143 140.361 143 107.5C143 74.6391 116.361 48 83.5 48Z" fill="#D9D9D9"/>
<path d="M6.5 0H-112.5C-138.181 0 -159 20.8188 -159 46.5C-159 72.1812 -138.181 93 -112.5 93H6.5C32.1812 93 53 72.1812 53 46.5C53 20.8188 32.1812 0 6.5 0Z" fill="#D9D9D9"/>
</g>
<defs>
<clipPath id="clip0_207_14">
<rect width="143" height="167" fill="white"/>
</clipPath>
</defs>
</svg>
