<?xml version="1.0" encoding="UTF-8"?>
<!DOCTYPE svg PUBLIC "-//W3C//DTD SVG 1.1//EN" "http://www.w3.org/Graphics/SVG/1.1/DTD/svg11.dtd">
<!-- Creator: CorelDRAW X8 -->
<svg xmlns="http://www.w3.org/2000/svg" xml:space="preserve" width="1298px" height="1351px" version="1.1" style="shape-rendering:geometricPrecision; text-rendering:geometricPrecision; image-rendering:optimizeQuality; fill-rule:evenodd; clip-rule:evenodd"
viewBox="0 0 436 454"
 xmlns:xlink="http://www.w3.org/1999/xlink">
 <defs>
  <style type="text/css">
   <![CDATA[
    .fil0 {fill:#FF566A}
   ]]>
  </style>
 </defs>
 <g id="Layer_x0020_1">
  <metadata id="CorelCorpID_0Corel-Layer"/>
  <g id="_540587480">
   <path class="fil0" d="M59 77c0,31 7,48 22,73 11,18 38,48 54,63 15,13 71,56 83,56 5,0 23,-12 28,-14 30,-20 68,-51 91,-79 3,-5 6,-8 9,-12 3,-5 6,-8 9,-13 15,-25 23,-43 23,-74 0,-21 -10,-38 -21,-53 -5,-5 -14,-12 -21,-15 -19,-11 -47,-11 -66,-1 -19,11 -46,39 -51,58l-2 0c-4,-18 -30,-46 -50,-57 -47,-27 -108,11 -108,68z"/>
   <path class="fil0" d="M0 192l6 64c1,7 1,14 1,21 1,7 2,15 5,19 10,16 26,28 40,40 2,2 4,4 6,6 4,4 7,8 11,12 8,7 16,16 22,25 3,5 6,9 7,15 8,23 -5,60 11,60 5,0 8,-4 8,-9l0 -45c0,-12 -8,-25 -14,-33 -9,-14 -21,-25 -33,-37 -4,-4 -8,-9 -12,-12l-30 -29c-3,-4 -3,-4 -3,-9 0,-7 -1,-16 -2,-23 -1,-13 -6,-54 -6,-64 1,-14 4,-30 5,-44 1,-7 2,-14 2,-22 26,14 16,62 18,85 1,16 9,40 14,54 6,13 23,27 33,37 5,5 14,16 20,16 7,0 8,-4 8,-10 0,-3 -6,-8 -8,-10 -2,-2 -2,-2 -3,-4 -7,-9 -16,-16 -24,-23 -11,-11 -13,-22 -17,-37 -1,-4 -3,-12 -4,-15 26,0 29,19 45,41 4,4 6,6 11,10l39 27c9,5 15,13 23,20 10,11 24,24 22,41 -1,13 -2,27 -5,39 -4,16 -3,31 -3,47 0,5 3,9 8,9 14,0 7,-25 10,-39 2,-14 6,-27 6,-42l2 0c0,23 8,31 8,65 0,9 -1,16 8,16 12,0 8,-15 8,-35 0,-13 -4,-25 -6,-37 -4,-34 -4,-37 20,-63 14,-16 31,-27 48,-38 25,-17 25,-19 42,-46 7,-10 11,-15 29,-15 -4,6 -6,20 -8,28 -4,11 -4,15 -13,23l-27 28c-4,4 -9,7 -9,12 0,7 5,8 10,8 4,0 31,-29 35,-33 18,-18 17,-21 24,-45 8,-26 6,-35 6,-62 0,-23 3,-44 18,-52 0,16 5,46 7,64 1,14 -7,66 -8,86 0,13 -1,10 -7,17l-24 23c-12,9 -38,37 -47,49 -5,8 -14,22 -14,34l0 47c0,4 4,7 8,7 12,0 9,-18 9,-38 0,-19 1,-25 9,-37 7,-9 14,-17 21,-25 8,-7 29,-28 36,-34 8,-6 16,-15 22,-23 7,-10 7,-49 8,-61 1,-7 2,-14 2,-21 3,-28 1,-40 -2,-67 -1,-8 -2,-16 -3,-23 0,-3 0,-8 -1,-11 -5,-13 -51,-9 -51,66 0,9 1,13 1,22 -35,0 -40,18 -55,39 -3,4 -5,8 -8,11l-34 24c-22,15 -51,39 -60,64 -2,4 -1,4 -4,7 0,-14 -22,-37 -30,-46l-15 -13c-2,-2 -3,-3 -5,-4 -10,-7 -38,-24 -45,-31 -20,-23 -23,-51 -63,-51l1 -26c0,-66 -45,-76 -51,-63 -2,5 -6,49 -7,56 -1,8 -2,16 -2,23z"/>
  </g>
 </g>
</svg>
