<svg width="147" height="208" viewBox="0 0 147 208" fill="none" xmlns="http://www.w3.org/2000/svg">
<g clip-path="url(#clip0_207_11)">
<path d="M230.5 0H151.5C115.325 0 86 29.3253 86 65.5C86 101.675 115.325 131 151.5 131H230.5C266.675 131 296 101.675 296 65.5C296 29.3253 266.675 0 230.5 0Z" fill="#D9D9D9"/>
<path d="M268 60H74C33.1309 60 0 93.1309 0 134C0 174.869 33.1309 208 74 208H268C308.869 208 342 174.869 342 134C342 93.1309 308.869 60 268 60Z" fill="#D9D9D9"/>
</g>
<defs>
<clipPath id="clip0_207_11">
<rect width="147" height="208" fill="white"/>
</clipPath>
</defs>
</svg>
