<?xml version="1.0" encoding="UTF-8"?>
<!DOCTYPE svg PUBLIC "-//W3C//DTD SVG 1.1//EN" "http://www.w3.org/Graphics/SVG/1.1/DTD/svg11.dtd">
<!-- Creator: CorelDRAW X8 -->
<svg xmlns="http://www.w3.org/2000/svg" xml:space="preserve" width="267px" height="318px" version="1.1" style="shape-rendering:geometricPrecision; text-rendering:geometricPrecision; image-rendering:optimizeQuality; fill-rule:evenodd; clip-rule:evenodd"
viewBox="0 0 4 5"
 xmlns:xlink="http://www.w3.org/1999/xlink">
 <defs>
  <style type="text/css">
   <![CDATA[
    .fil4 {fill:#5884BF}
    .fil3 {fill:#85583A}
    .fil1 {fill:#8AB6EF}
    .fil0 {fill:#A46F4D}
    .fil5 {fill:#DBB672}
    .fil2 {fill:#F4CC83}
   ]]>
  </style>
 </defs>
 <g id="Layer_x0020_1">
  <metadata id="CorelCorpID_0Corel-Layer"/>
  <g id="_318319000">
   <path class="fil0" d="M2 3c0,0 -1,0 -1,-1 0,0 1,0 1,0 0,0 0,-1 1,-1 0,1 0,1 -1,2zm0 0c0,0 0,0 0,0 0,0 0,0 0,0l1 0c0,0 0,0 1,0 -1,0 -1,0 -1,0 0,-1 1,-2 0,-2 0,-1 0,0 0,-1 -1,0 -2,0 -2,1 0,1 0,1 0,2 0,0 0,0 1,0z"/>
   <path class="fil1" d="M3 3l0 1c-1,0 -1,0 -2,0l0 -1c0,0 -1,1 -1,2l4 0c0,-1 -1,-2 -1,-2z"/>
   <path class="fil2" d="M2 3c1,-1 1,-1 1,-2 -1,0 -1,1 -1,1 0,0 -1,0 -1,0 0,1 1,1 1,1z"/>
   <path class="fil3" d="M1 3l0 0 0 1 1 -1c-1,0 -1,0 -1,0 0,-1 0,-1 0,-2 0,-1 1,-1 2,-1 0,1 0,0 0,1 1,0 0,1 0,2 0,0 0,0 1,0 -1,0 -1,0 -1,0l0 1 0 -1 0 0 0 0c0,0 1,0 1,0 -1,0 0,-2 -1,-3 0,0 0,0 0,0 -1,0 -2,0 -2,1 0,0 0,1 0,1 0,1 -1,1 -1,1 1,0 1,0 1,0l0 0z"/>
   <path class="fil4" d="M3 3l0 0c0,0 1,1 1,2l-4 0c0,-1 1,-2 1,-2l0 0c0,0 -1,1 -1,2l4 0c0,-1 0,-2 -1,-2z"/>
   <path class="fil5" d="M1 4c1,0 1,0 2,0l0 -1 -1 0c0,0 0,0 0,0 0,0 0,0 0,0l-1 1z"/>
  </g>
 </g>
</svg>
