<?xml version="1.0" encoding="UTF-8"?>
<!DOCTYPE svg PUBLIC "-//W3C//DTD SVG 1.1//EN" "http://www.w3.org/Graphics/SVG/1.1/DTD/svg11.dtd">
<!-- Creator: CorelDRAW X8 -->
<svg xmlns="http://www.w3.org/2000/svg" xml:space="preserve" width="1298px" height="1351px" version="1.1" style="shape-rendering:geometricPrecision; text-rendering:geometricPrecision; image-rendering:optimizeQuality; fill-rule:evenodd; clip-rule:evenodd"
viewBox="0 0 158 164"
 xmlns:xlink="http://www.w3.org/1999/xlink">
 <defs>
  <style type="text/css">
   <![CDATA[
    .fil0 {fill:#F2F2F2}
   ]]>
  </style>
 </defs>
 <g id="Layer_x0020_1">
  <metadata id="CorelCorpID_0Corel-Layer"/>
  <g id="_538306584">
   <path class="fil0" d="M0 70l2 23c0,2 1,5 1,7 0,3 0,6 1,7 4,6 10,10 15,15 1,1 1,1 2,2 1,1 3,3 4,4 3,3 6,6 8,9 1,2 2,4 3,6 2,8 -2,21 3,21 2,0 4,-1 4,-3l0 -16c0,-4 -4,-9 -6,-12 -3,-5 -7,-9 -12,-13 -1,-2 -3,-4 -4,-5l-11 -10c-1,-2 -1,-2 -1,-4 0,-2 0,-6 -1,-8 0,-4 -2,-19 -2,-23 0,-5 2,-11 2,-16 0,-3 1,-5 1,-8 9,5 6,22 6,31 1,6 3,14 5,19 2,5 9,10 12,14 2,1 5,6 7,6 3,0 4,-2 4,-4 0,-1 -3,-3 -3,-4 -1,0 -1,-1 -2,-1 -2,-3 -6,-6 -8,-9 -4,-4 -5,-7 -7,-13 0,-1 0,-4 -1,-5 9,0 10,6 16,14 2,2 2,3 4,4l15 10c3,2 5,5 8,7 4,4 8,9 8,15 -1,5 -1,10 -2,14 -1,6 -1,11 -1,17 0,2 1,3 3,3 5,0 2,-9 3,-14 1,-5 3,-10 3,-15l0 0c0,8 3,11 3,24 0,3 0,5 3,5 4,0 3,-5 3,-12 0,-5 -2,-9 -2,-14 -2,-12 -1,-13 7,-23 5,-5 11,-9 18,-13 9,-6 8,-7 15,-17 2,-4 4,-5 10,-5 -1,2 -2,7 -3,10 -1,4 -1,5 -5,8l-9 10c-2,2 -4,3 -4,5 0,2 2,3 4,3 2,0 11,-11 13,-12 6,-7 6,-8 8,-17 3,-9 3,-13 3,-22 0,-9 1,-16 6,-19 0,6 2,17 3,23 0,5 -3,24 -3,31 0,5 -1,4 -3,7l-9 8c-4,3 -13,13 -16,18 -2,3 -6,7 -6,12l0 17c0,1 2,2 3,2 5,0 4,-6 4,-13 0,-7 0,-9 3,-14 2,-3 5,-6 8,-9 2,-2 10,-10 12,-12 3,-2 6,-5 9,-9 2,-3 2,-17 3,-22 0,-2 0,-5 0,-7 1,-10 1,-15 -1,-24 0,-3 0,-6 -1,-9 0,-1 0,-3 0,-4 -2,-5 -19,-3 -19,24 0,3 1,5 1,8 -13,0 -15,7 -20,14 -1,2 -2,3 -3,4l-12 9c-8,5 -19,14 -22,23 -1,2 0,2 -1,2 -1,-5 -8,-13 -11,-16l-6 -5c-1,0 -1,-1 -2,-1 -3,-3 -13,-9 -16,-12 -7,-8 -8,-18 -23,-18l1 -9c0,-24 -16,-28 -19,-23 0,2 -2,18 -2,20 0,3 -1,6 -1,9z"/>
   <path class="fil0" d="M27 30c0,-6 3,-13 6,-16 12,-13 25,-8 34,3 3,3 4,6 6,9 1,2 2,3 2,5 1,2 1,4 4,4 3,1 3,-3 6,-8 2,-5 5,-9 9,-13 6,-7 15,-10 24,-6 8,4 13,13 13,22 0,10 -7,21 -13,29 -4,4 -7,7 -10,11l-20 15c-1,1 -8,6 -9,6 -2,0 -15,-10 -17,-11 -1,-1 -2,-2 -4,-3 -9,-8 -17,-16 -23,-26 -3,-5 -8,-14 -8,-21zm-6 -2c0,11 3,17 8,26 4,7 14,18 20,23 5,5 26,20 30,20 2,0 8,-4 10,-5 11,-7 25,-18 33,-28 1,-2 2,-3 3,-5 1,-1 2,-3 3,-4 6,-9 9,-16 9,-27 0,-8 -4,-14 -8,-19 -2,-2 -5,-5 -7,-6 -7,-4 -17,-4 -24,0 -7,4 -17,14 -19,21l0 0c-2,-7 -11,-17 -18,-21 -17,-9 -40,4 -40,25z"/>
  </g>
 </g>
</svg>
